<?xml version="1.0" encoding="utf-8"?>
<!-- Generator: Adobe Illustrator 17.1.0, SVG Export Plug-In . SVG Version: 6.00 Build 0)  -->
<!DOCTYPE svg PUBLIC "-//W3C//DTD SVG 1.1//EN" "http://www.w3.org/Graphics/SVG/1.1/DTD/svg11.dtd">
<svg version="1.1" id="Layer_1" xmlns="http://www.w3.org/2000/svg" xmlns:xlink="http://www.w3.org/1999/xlink" x="0px" y="0px"
	 viewBox="0 0 403.6 327.4" enable-background="new 0 0 403.6 327.4" xml:space="preserve">
<g>
	<g>
		<defs>
			<path id="SVGID_1_" d="M349.5,245.3c-7.3,13.3-23.9,17.3-33.9,29.6c-12.2,14.9-18.2,37.2-30,42.6c-21.6,9.8-40.8-1.8-69.2-2.3
				c-28.4-0.5-40.9,17-58.8,10.7c-17.9-6.3-20.3-21.6-28.1-27.2c-7.8-5.6-34-7.5-46.7-17.2c-12.7-9.7-3.9-22.2-3.9-22.2
				s-13.9,4.1-19.5-10.8c-3.8-10-0.7-13.3-0.2-28.9c2.4-1.4,6.2-2.7,12-3.4c1.2-0.1,2.3-0.3,3.5-0.4c3.4,8.9,7.7,17.3,12.9,25.4
				c9.6,14.8,21.8,27.5,36.3,37.7c14.5,10.2,30.6,17.3,47.8,21.3c17.8,4.1,36.1,4.5,54.2,1.3c18.1-3.2,35.1-9.9,50.5-19.8
				c14.8-9.6,27.5-21.8,37.7-36.3c10.2-14.5,17.3-30.6,21.3-47.8c0.9-4,1.7-8.1,2.2-12.1c1.3-0.2,2.7-0.3,4-0.5
				c5.8-0.7,9.6-0.3,12,0.5C356.9,205,360.6,225,349.5,245.3L349.5,245.3z M63.8,238.8c-0.5,0-0.3,2.3-0.3,3.1
				c0,0.7,0.4,1.3,0.8,1.3c0.5,0,0.8-0.6,0.8-1.3C65.1,241.1,64.2,238.8,63.8,238.8L63.8,238.8z M72.6,250.1c-4.3-3.3-7.7-7.8-7.2-3
				c2.5,8.5,15.4,4.8,15.4,4.8S75.9,252.2,72.6,250.1L72.6,250.1z M85.6,271.3c-1.7-3.7-0.9-5-2.6-5.3c-1.7-0.3-1.7,2.5,0.6,7
				c2.4,4.5,20,10.3,20,10.3S87.3,275.2,85.6,271.3L85.6,271.3z M188.9,311.2c-9.5,4.1-13.4,9.2-21.3,9.5c8.4,0.9,17.8-8.1,28.8-9.3
				c2.3-0.3,4.7-1.1,7.1-0.8C200.5,309.8,192.6,309.6,188.9,311.2L188.9,311.2z M307.7,272.7c-9.9,12.1-13.8,29.6-21.8,38.2
				c9.3-7.7,15.1-26.4,25.7-39.3c2.2-2.7,4.7-4.9,7.3-7C315.3,266.6,310.8,269,307.7,272.7L307.7,272.7z M349.4,187.2
				c2.6,19,3.2,37.6-5.8,57.9c-1.1,1.8-2.1,3.4-3.2,4.8c1.9-1.9,3.5-4,4.9-6.5C355.6,224.4,352.7,205.7,349.4,187.2L349.4,187.2z
				 M179.7,40.3c59.2-10.4,116.1,21.4,139.7,73.9c-32.5,3.8-55.7,6.6-71.8,8.5l5.6-8c0.3-1.3-0.9-3.4-3.2-5.7l-10.3,14.7
				c-1.5,0.2-3,0.4-4.4,0.5l12.2-17.4c-0.7-0.6-1.5-1.2-2.4-1.8c-0.8-0.6-1.6-1.1-2.4-1.5L227.5,125c-1.8,0.2-3.5,0.4-4.8,0.6
				l16.8-24c-3.2-1.4-5.8-1.8-6.6-0.6c-0.1,0.1-0.2,0.2-0.2,0.2l-17.7,25.3c-2.7,0.3-15,1.5-33.8,3.5c-1.7-1.2-2.9-2-3.3-2.3
				c-2.6-1.9-4.2-5.9-5-9.3c-0.1-0.8-0.2-1.5-0.3-2.3c-0.2-0.9-0.4-1.8-0.6-2.7c0-0.3-0.1-0.5-0.1-0.5l-0.1,0.1
				c-4.6-17.1-21.6-28.1-39.3-25c-8.5,1.5-15.8,6-20.9,12.3l27.3,7.1l4.1,14.7l-11,11.2l-28-7.3c0.1,0.7,0.2,1.4,0.3,2
				c0.6,3.6,1.8,6.9,3.4,10c-10.3,1.2-21,2.4-32,3.7C85.9,91.3,126,49.8,179.7,40.3L179.7,40.3z M269.1,88.4l2.7-3.9
				c0.1-0.1,0.2-0.2,0.3-0.3c1-1.5-1.9-5.3-6.5-8.6c-4.6-3.2-9.2-4.7-10.2-3.3l-0.1,0l-3,4.2l0.1,0.1c1.5-0.9,5.7,0.5,9.9,3.5
				C266.6,83.2,269.5,86.7,269.1,88.4L269.1,88.4L269.1,88.4z M236.6,96.2c2.1-0.5,6.7,1.4,11.3,4.9c4,3,6.8,6.3,7.6,8.6l0.7,0.5
				l11.5-16.5c0.1-0.1,0.3-0.2,0.3-0.3c0.1-0.1,0.1-0.3,0.2-0.4l0.1-0.2l-0.1-0.1c0.2-2.1-3.1-6.1-8-9.6c-5-3.5-9.9-5.2-11.7-4.3
				l-0.2-0.2l-12,17.2L236.6,96.2L236.6,96.2z M184.2,103.5l3.8,2.6l2.8-4l4,2.8l2.6-3.8l-4-2.8l2.8-4l-3.8-2.6l-2.8,4l-4-2.8
				l-2.6,3.8l4,2.8L184.2,103.5L184.2,103.5z M184,82.6l-2.8,4l3.8,2.6l2.8-4l4,2.8l2.6-3.8l-4-2.8l2.8-4l-3.8-2.6l-2.8,4l-4-2.8
				l-2.6,3.8L184,82.6L184,82.6z M181,65.6l-2.8,4l3.8,2.6l2.8-4l4,2.8l2.6-3.8l-4-2.8l2.8-4l-3.8-2.6l-2.8,4l-4-2.8l-2.6,3.8
				L181,65.6L181,65.6z M258.9,210.3l-19.4-13.6c5.2-0.6,10.3-1.2,15.4-1.8l9.9,6.9c2.3,1.6,2.9,4.8,1.3,7.2
				C264.4,211.3,261.2,211.9,258.9,210.3L258.9,210.3z M290.2,217.6c0.9,5-2.4,9.7-7.4,10.6c-5,0.9-9.7-2.4-10.6-7.4
				c-0.9-5,2.4-9.7,7.4-10.6C284.6,209.3,289.3,212.6,290.2,217.6L290.2,217.6z M329.3,186.3c-7.8,53.2-48.5,97.4-105,107.4
				c-61,10.8-119.6-23.4-141.7-78.8c27-3.2,52.5-6.1,76.7-8.9l-8.1,11.6l0.1,0c0,0,0,0,0,0c0.8-1.1,3.4-0.8,6.6,0.6l9.2-13.1
				c1.6-0.2,3.2-0.4,4.8-0.6l-10.8,15.4c0.8,0.5,1.6,1,2.4,1.5c0.9,0.6,1.7,1.2,2.4,1.8l13.8-19.7c1.5-0.2,2.9-0.3,4.4-0.5
				l-15.7,22.4c2.2,2.3,3.5,4.4,3.2,5.7l20.3-29c10.8-1.2,21.2-2.4,31.5-3.6c25,17.5,48,33.6,48,33.6l0,0c0.2,0.1,0.3,0.2,0.5,0.4
				c7.2,5.1,17.2,3.3,22.2-3.9c5.1-7.2,3.3-17.2-3.9-22.2c-0.2-0.1-0.3-0.2-0.5-0.3l0,0c0,0-7.4-5.2-18.5-12.9
				C291.4,190.7,310.7,188.5,329.3,186.3L329.3,186.3z M137,258.3l6-4.3c-0.5-0.5-1.1-1-1.8-1.5c-0.7-0.5-1.4-0.9-2.2-1.2L137,258.3
				L137,258.3z M160.5,225.7c-5.5-3.9-11-5.6-12.3-3.8c-0.1,0.1-0.2,0.3-0.2,0.5l-0.2-0.1l-7.5,24.9c1.1,0.4,2.2,0.9,3.3,1.7
				c1.1,0.8,2.1,1.8,2.9,2.7l21.4-15.2l0,0c0.1-0.1,0.3-0.2,0.4-0.3C169.5,234.2,166,229.6,160.5,225.7L160.5,225.7z M339.2,111.8
				c-4,0.5-7.9,0.9-11.7,1.4c-3-7.1-6.6-13.9-10.9-20.4c-9.6-14.8-21.8-27.5-36.3-37.7c-14.5-10.2-30.6-17.3-47.8-21.3
				c-17.8-4.1-36.1-4.5-54.2-1.3c-18.1,3.2-35.1,9.9-50.5,19.8c-14.8,9.6-27.5,21.8-37.7,36.3c-10.2,14.5-17.3,30.6-21.3,47.8
				c-0.5,2.1-0.9,4.2-1.3,6.2c-2.4,0.3-4.8,0.6-7.2,0.9c-9.7,1.1-13.6,3.9-15.1,6.3c-2.5-10.5-3.4-21.8,0.5-36.2
				c9.6-35.9,47.4-49.9,68.3-67.2C134,30,150.2,1.8,183.1,0.1C216-1.6,239.6,21,262.3,30.4c21.7,9,73.6,22,86.9,52.8
				c3.3,7.6,3.5,18.4,2.9,30.8C350,112.3,346.1,111,339.2,111.8L339.2,111.8z M58.5,96.5c15.7-19.8,41.9-30,56-44.6
				c0.4-0.5,0.9-0.9,1.3-1.4C99.6,63.7,73.4,75.1,58.5,96.5L58.5,96.5z M182.9,4.6c-13.2,0.7-23.7,5.8-32.7,12.6
				c8.8-5.6,18.9-9.4,31.1-10.1c20.3-1.1,37.7,5.8,53.4,13.3C219.6,11.8,203,3.5,182.9,4.6L182.9,4.6z M344.8,85.9
				c-7.5-17.5-27.8-29.1-47.6-37.5c19.1,9.2,38.4,21.8,45.9,39.1C344.8,91.1,346.2,88.3,344.8,85.9L344.8,85.9z M347.3,95
				c-0.8-5.2-2.2-3.3-2.1-1.7c0.1,1.7,2.5,12.8,2.5,12.8S348.2,100.2,347.3,95L347.3,95z"/>
		</defs>
		<use xlink:href="#SVGID_1_"  overflow="visible" fill-rule="evenodd" clip-rule="evenodd"/>
		<clipPath id="SVGID_2_">
			<use xlink:href="#SVGID_1_"  overflow="visible"/>
		</clipPath>
	</g>
	<g>
		<defs>
			<path id="SVGID_3_" d="M403.6,188.3c0,0-19.1,7.1-36.9,8.5c-2.2,0.1-9.8,0.3-9.8,0.3s-0.6-4.9-1.7-10.2c3.7-0.1,4.7-3.1,4.7-3.1
				l-1.7-49.7c0,0,2.5,0.1,3,0c18-1.4,37.5-8.5,37.5-8.5l-36.4,38.5L403.6,188.3L403.6,188.3z M341.4,179.4
				c-74.2,8.8-159.7,18.3-270.4,31.3c-14.7,1.7-16.2,7.1-16.2,9.5l-10.3-60.4c0,0-3.4-8.5,15.8-10.8c83.1-9.8,155.1-17.1,155.1-17.1
				c23.2-2.7,67.9-8,123.8-14.6c15.4-1.8,15.8,7.1,15.8,7.1l2.1,58.7C356.2,180.7,352.7,178,341.4,179.4L341.4,179.4z M79,163.8
				l-6,0.7l-11.5,30.2L68,194l1.7-4.5l12.5-1.5l1.7,4.1l6.6-0.8L79,163.8L79,163.8z M105.4,160.6l-11,1.3v28.9l6.2-0.7v-7.6l4.9-0.6
				c6.7-0.8,11.2-5.1,11.2-12C116.6,163,112.2,159.8,105.4,160.6L105.4,160.6z M131.5,157.5l-11,1.3v28.9l6.2-0.7v-7.6l4.9-0.6
				c6.7-0.8,11.2-5.1,11.2-12C142.8,159.9,138.3,156.6,131.5,157.5L131.5,157.5z M153.7,162.1c0.6-1,2-1.7,4.1-2
				c2.2-0.3,3.9,0.3,5.1,1.6l0.2,0.2l4.2-4.7L167,157c-1.3-1.1-2.7-1.9-4.1-2.4c-1.5-0.5-3.6-0.5-6.2-0.2c-2.3,0.3-4.6,1.3-6.8,3.1
				c-2.2,1.8-3.3,4.1-3.3,6.7c0,2.9,1,4.8,3,5.7c1.9,0.9,4,1.4,6.3,1.3c2.4,0,3.9,0.4,4.5,1.3c0.6,0.9,0.6,1.9,0,2.9
				c-0.6,1-2.1,1.7-4.5,2c-2.9,0.1-5-0.5-6.2-1.8l-0.2-0.2l-4.2,4.7l0.2,0.2c1.3,1.1,2.8,2,4.6,2.5c1.8,0.6,4,0.7,6.7,0.3
				c2.8-0.3,5.3-1.5,7.4-3.4c2.1-1.9,3.2-4.1,3.2-6.5c0-3-1-5.1-3-6.2c-2-1.1-4.2-1.6-6.6-1.6c-2.2-0.1-3.6-0.5-4.2-1.1
				C153.1,163.9,153.1,163.1,153.7,162.1L153.7,162.1z M194.9,149.8l-25.1,3v5.8l9.4-1.1v23l6.2-0.7v-23l9.4-1.1V149.8L194.9,149.8z
				 M219.8,146.8l-21.3,2.6v28.8l21.3-2.6v-5.8l-15.1,1.8v-5.9l11.3-1.4v-5.8l-11.3,1.4v-5.5l15.1-1.8V146.8L219.8,146.8z
				 M234.7,145l-11,1.3v28.9l6.2-0.7v-7.6l3.9-0.5l4.4,7.1l7.1-0.9l-5-8.1c3.5-2,5.6-5.5,5.6-10.3
				C245.9,147.4,241.5,144.2,234.7,145L234.7,145z M261,141.8l-11.2,1.3V172l11.2-1.3c8.9-1.1,13.5-6.5,13.5-16.1
				C274.5,145,269.9,140.7,261,141.8L261,141.8z M292.6,138.2l-0.1-0.2l-6,0.7L275,169l6.6-0.8l1.7-4.5l12.5-1.5l1.7,4.1l6.6-0.8
				L292.6,138.2L292.6,138.2z M335.6,132.8l-2.3,0.3l-12.2,15.3L309,136l-2.3,0.3v28.9l6.2-0.7v-15l8.2,8.2l8.2-10.1l0,15l6.2-0.7
				V132.8L335.6,132.8z M289.7,146.9l3.8,9.3l-7.7,0.9L289.7,146.9L289.7,146.9z M261,164.5l-5,0.6v-16.5l5-0.6
				c4.9-0.6,7.3,1.8,7.3,7.4C268.3,160.9,265.9,163.9,261,164.5L261,164.5z M236,160.3l-6.1,0.7v-9.6l6.1-0.7
				c2.1-0.2,4.3,1.7,4.3,4.2C240.3,157.5,238.1,160,236,160.3L236,160.3z M132.8,172.7l-6.1,0.7v-9.6l6.1-0.7
				c2.1-0.2,4.3,1.7,4.3,4.2C137.1,169.9,134.9,172.4,132.8,172.7L132.8,172.7z M106.6,175.8l-6.1,0.7V167l6.1-0.7
				c2.1-0.2,4.3,1.7,4.3,4.2C111,173.1,108.8,175.5,106.6,175.8L106.6,175.8z M76.1,172.7l3.8,9.3l-7.7,0.9L76.1,172.7L76.1,172.7z
				 M56.7,224.3c-0.3,2.4-0.9,8.6-0.9,8.6s-11,0.2-15.4,0.2c-17.9,0-37.5-5.5-37.5-5.5l41.4-27L2.9,164.8c0,0,20,5.5,38.1,5.5
				c1.1,0,2.5,0,2.5,0l8.2,51.1C51.7,221.4,52.7,224.1,56.7,224.3L56.7,224.3z"/>
		</defs>
		<use xlink:href="#SVGID_3_"  overflow="visible" fill-rule="evenodd" clip-rule="evenodd" fill="#C30101"/>
		<clipPath id="SVGID_4_">
			<use xlink:href="#SVGID_3_"  overflow="visible"/>
		</clipPath>
	</g>
	<g>
		<defs>
			<path id="SVGID_5_" d="M164.4,164.8l-0.5,0.5c-0.7-0.3-1.4-0.5-2.1-0.7l0,0c-0.7-0.7-1.6-1.1-2.8-1.1c-0.3,0-0.6,0-0.9,0.1
				c-0.8,0.1-1.4,0.3-1.9,0.5c-0.7-0.1-1-0.3-1.1-0.4c0-0.1,0.1-0.3,0.2-0.5c0.3-0.5,1.4-0.9,2.9-1.1c0.3,0,0.6-0.1,0.9-0.1
				c1.2,0,2.1,0.4,2.8,1.1l0.2,0.2l1.2,1.3l1.2-1.4l3.9-4.3v0v1.5L164.4,164.8L164.4,164.8z M206.4,169.1v-1.6l9.9-1.2v1.6
				L206.4,169.1L206.4,169.1z M159,175c0,0-0.1,0.1-0.1,0.2c-0.3-0.2-1-0.4-2.6-0.4c-0.1,0-0.2,0-0.3,0l-0.2,0c-2.1,0-4.1-0.4-6-1.1
				l-0.3-0.3l-0.1,0.1c-0.2-0.1-0.4-0.2-0.5-0.2c-1.8-0.9-3.9-2.8-3.9-7.2c0-0.2,0-0.4,0-0.6c0.3,3.8,2.2,5.5,3.9,6.3
				c2.1,1,4.4,1.5,6.9,1.5h0.2c0.1,0,0.2,0,0.3,0c2.3,0,2.7,0.5,2.7,0.5C159.2,174.1,159.4,174.4,159,175L159,175z M266.7,156.5
				c-0.2-4.4-2.2-5-4.2-5c-0.4,0-0.8,0-1.2,0.1l-3.5,0.4v-1.6l3.5-0.4c0.4,0,0.8-0.1,1.2-0.1c2.2,0,4.3,0.7,4.3,5.8
				C266.7,156,266.7,156.2,266.7,156.5L266.7,156.5z M289.9,154l-1.6,1.5l1.4-3.8l1.4,3.4L289.9,154L289.9,154z M238.6,156.1
				c-0.1-0.4-0.3-0.8-0.7-1.1c-0.4-0.5-1-0.7-1.6-0.7c0,0-0.1,0-0.1,0l-4.6,0.6v-1.6l4.6-0.6c0,0,0.1,0,0.1,0c0.5,0,1.1,0.3,1.6,0.7
				c0.5,0.5,0.8,1.2,0.8,1.9C238.7,155.5,238.6,155.8,238.6,156.1L238.6,156.1z M243.3,166.3l-0.6-1c3-2.3,4.8-5.7,5-9.8
				c0,0.2,0,0.4,0,0.7C247.7,160.3,246.1,163.8,243.3,166.3L243.3,166.3z M135.4,168.5c-0.1-0.4-0.3-0.8-0.6-1.1
				c-0.4-0.5-1-0.7-1.6-0.7c0,0-0.1,0-0.1,0l-4.6,0.6v-1.6l4.6-0.6c0,0,0.1,0,0.1,0c0.5,0,1.1,0.3,1.6,0.7c0.5,0.5,0.8,1.2,0.8,1.9
				C135.5,168,135.4,168.2,135.4,168.5L135.4,168.5z M105.7,185.3l-3.4,0.4v-1.6l3.4-0.4c7.5-0.9,12.3-5.8,12.6-12.9
				c0,0.3,0,0.5,0,0.8C118.4,179.1,113.5,184.4,105.7,185.3L105.7,185.3z M187.2,160.1v-1.6l7.8-1v1.6L187.2,160.1L187.2,160.1z
				 M206.4,157.8v-1.6l13.5-1.7v1.6L206.4,157.8L206.4,157.8z M198.4,181.7v-1.6l21.6-2.5v1.6L198.4,181.7L198.4,181.7z
				 M169.8,162.2v-1.6l7.8-1v1.6L169.8,162.2L169.8,162.2z M179,184.1v-1.6l6.7-0.7v1.6L179,184.1L179,184.1z M223.7,178.7v-1.6
				l6.4-0.7v1.6L223.7,178.7L223.7,178.7z M306.7,168.7v-1.6l6.5-0.7v1.6L306.7,168.7L306.7,168.7z M297.8,169.8l-1.3,0.2l-0.5-1.2
				l-1.2-3l-10.2,1.2l-1.3,3.6l-0.4,0.9l-1,0.1l-6.6,0.8l-2.7,0.3l0.6-1.6l2.1-0.3l6.6-0.8l1-0.1l0.4-0.9l1.3-3.6l10.2-1.2l1.2,3
				l0.5,1.2l1.3-0.2l7.3-0.9l0.8,1.5l-1.5,0.2L297.8,169.8L297.8,169.8z M329.4,165.9v-1.6l6.5-0.7v1.6L329.4,165.9L329.4,165.9z
				 M321.4,161.9l-1.3-1.3l-5.4-5.4v-1.6l5.4,5.4l1.3,1.3l1.2-1.4l5.3-6.5v1.6l-5.3,6.5L321.4,161.9L321.4,161.9z M261.2,174.2
				l-11.6,1.3V174l11.6-1.3c9.6-1.2,14.7-7.1,14.9-17.1c0,0.3,0,0.7,0,1C276.2,166.9,271,173,261.2,174.2L261.2,174.2z M165.4,182.9
				c-2.4,2.2-5.2,3.4-8.4,3.8c-1,0.1-2,0.2-3,0.2c-1.7,0-3.1-0.2-4.4-0.6c-2-0.6-3.8-1.6-5.2-2.9l-0.2-0.2l-1.2-1.1l0.8-0.9l0.5,0.4
				l0.2,0.2c1.5,1.3,3.2,2.2,5.2,2.9c1.3,0.4,2.8,0.6,4.4,0.6c0.9,0,1.9-0.1,3-0.2c3.2-0.4,6-1.7,8.4-3.8c2.3-2.1,3.6-4.5,3.7-7.1
				c0,0.3,0,0.6,0,0.9C169.2,178.1,167.9,180.7,165.4,182.9L165.4,182.9z M245.6,176.1l-7.1,0.9l-1,0.1l-0.6-0.9L233,170l-1.4,0.2
				v-1.6l1.4-0.2l3.9,6.2l0.6,0.9l1-0.1l7.1-0.9l1.7-0.2l0.9,1.5L245.6,176.1L245.6,176.1z M90.8,194.7l-6.6,0.8l-1.3,0.2l-0.5-1.2
				l-1.2-3L71,192.8l-1.3,3.6l-0.4,0.9l-1,0.1l-6.6,0.8l-2.7,0.3l0.6-1.6l2.1-0.3l6.6-0.8l1-0.1l0.4-0.9l1.3-3.6l10.2-1.2l1.2,3
				l0.5,1.2l1.3-0.2l6.6-0.8l0.9-0.1l0.5,1.5L90.8,194.7L90.8,194.7z M76.3,180l-1.5,1.3l1.4-3.8l1.4,3.4L76.3,180L76.3,180z
				 M109.2,171.6c-0.1-0.4-0.3-0.8-0.6-1.1c-0.4-0.5-1-0.7-1.6-0.7c0,0-0.1,0-0.1,0l-4.6,0.6v-1.6l4.6-0.6c0,0,0.1,0,0.1,0
				c0.5,0,1.1,0.3,1.6,0.7c0.5,0.5,0.8,1.2,0.8,1.9C109.4,171.1,109.3,171.4,109.2,171.6L109.2,171.6z M120.5,191.2v-1.6l6.4-0.7
				v1.6L120.5,191.2L120.5,191.2z M131.8,182.2l-3.4,0.4V181l3.4-0.4c7.5-0.9,12.3-5.8,12.6-12.9c0,0.3,0,0.5,0,0.8
				C144.5,176,139.6,181.2,131.8,182.2L131.8,182.2z M94.2,194.1l-0.1-1.5l6.7-0.7v1.6L94.2,194.1L94.2,194.1z"/>
		</defs>
		<use xlink:href="#SVGID_5_"  overflow="visible"/>
		<clipPath id="SVGID_6_">
			<use xlink:href="#SVGID_5_"  overflow="visible"/>
		</clipPath>
	</g>
</g>
<path fill="#FFFFFF" d="M242.7,270.3l-0.7-0.7l-0.3-1.6c0,0,0.3,0,0.1-0.2l-0.1-0.4l0.2,0c0,0-0.3-0.2-0.2-0.4l-0.1-0.1
	c0,0-0.1-0.1,0-0.3c0,0,0.1-0.1,0-0.4l0-0.1l0-0.1l0-0.1c0,0,0.2,0,0-0.2l-0.1,0l0-0.1l0-0.1l0-0.1l0-0.1l0-0.1l0-0.1l-0.1-0.2
	l-0.6-3.7c0,0,0.1,0,0-0.2l0-0.1c0,0,0.1,0,0-0.1c0,0,0,0,0-0.1l0,0c0,0,0.1,0,0-0.2l0-0.1c0,0,0.1-0.1-0.1-0.1l0-0.1
	c0,0,0.1,0,0-0.1l0-0.1c0,0,0.1,0-0.1-0.2c0,0,0.1-0.1-0.1-0.1l0-0.1c0,0,0.1-0.1,0-0.1l0-0.1c0,0,0.1,0,0-0.1c0,0,0.1,0,0-0.1
	l0-0.1c0,0,0-0.1-0.1-0.1l-0.9-5.3l-0.1-0.5c0,0,0.2-0.2,0-0.3l0,0c0,0,0.1,0,0-0.2l0-0.3l-0.1,0l-0.3-1.9l0-0.1l0-0.1
	c0,0,0.1-0.1,0-0.1l0-0.1l-0.1,0l-0.4-1l-0.1-0.3l-0.1-0.1l-0.1,0l0-0.1c0,0,0.1-0.1-0.1-0.2l-0.2-1.2c0,0,0.1-0.1,0-0.1l0-0.1l0,0
	l-0.1-0.1l-0.3-1.7l-0.2-0.6c0,0,0-0.1,0-0.1c0-0.1-0.1-0.1-0.1-0.1c-0.1,0-0.1,0.1-0.1,0.1l-0.1,0l-0.2-0.9l-0.3-0.8l-0.1,0
	l-0.2-0.7l0-0.1c0,0,0-0.1,0-0.2c0,0,0.1-0.1,0-0.1c0,0-0.1-0.1,0-0.3c0,0,0.1-0.3-0.1-0.5c0,0,0-0.1-0.1-0.1l0-0.1c0,0,0,0,0,0
	c0-0.1-0.2-0.1-0.1,0l0,0l0,0l-0.1,0c0,0-0.2,0.3,0,0.3c0,0.3,0.1,0.7,0.3,1l0,0.7l-0.1,0l0.1,0.8l-0.2-0.6c0,0,0-0.1,0-0.1
	c0-0.1-0.1-0.2-0.1-0.4c0-0.1,0-0.9-0.1-1c-0.1,0-0.2,0.4-0.2,0.5l0,0.1l0,0.1l0,0l0,0.1l0,0.1l0,0l0,0.1l0,0.1l0,0.1l0,0.1l0,0.1
	l0,0.1l0,0.1l0,0.1l0,0.6c0,0-0.1-0.1,0,0.2l0.2,1.3l-0.1,0.1l0,0c0,0,0,0,0,0c0-0.1-0.1-0.1-0.1-0.1c-0.1,0-0.1,0.1-0.1,0.1
	c0,0,0,0.1,0.1,0.1l0,1.2l0,0l-0.1-0.2l-0.2-1l-0.3-0.7l0,0c0,0,0,0,0-0.1c0-0.1-0.1-0.1-0.1-0.1c-0.1,0-0.1,0.1-0.1,0.1
	c0,0,0,0,0,0l0,0l-0.1-0.8l-0.2-0.8l-0.1,0c0,0-0.2-0.7-0.2-0.7c0-0.1,0-0.1,0-0.2c0-0.1-0.1-0.1-0.2-0.2c-0.1-0.3,0-0.5,0.1-0.8
	c0-0.1,0.1-0.2,0-0.3c0-0.1-0.2-0.1-0.2-0.2c0,0.1,0,0.1,0,0.2c-0.2,0-0.2,0.1-0.1,0.2c-0.3,0.2,0.1,0.5,0,0.7v0.1l0,0.1l0,0.1
	l0,0.1l0,0l0,0l0,0.1l0,0.1l0,0.1l0,0.8l-0.1,0l0.1,0.8l0.1,0.8h0c0,0-0.1-0.1-0.1-0.1c-0.1,0-0.1,0.1-0.1,0.1c0,0,0,0,0,0l0,0.7
	l0.1,0.7l0.1,0.4l0.2,2.3l-0.1-0.1l-0.1,0l0.1,1.2l0.1,0.5c0,0-0.1,0.1-0.1,0.2l0,0.1c0,0-0.2,0.2,0,0.2l0,0.1l-0.2,0
	c0,0,0-0.2-0.1-0.3c0,0,0.1-0.1-0.1-0.2l0-0.1c0,0,0.1-0.1,0-0.1c0,0,0-0.1,0-0.1c0,0,0.1-0.1,0-0.1l0-0.1l-0.1,0l0,0.1
	c0,0-0.2,0.1,0,0.1l0.1,0.3l-0.1,0.1l0.1,0.3l-0.1,0l-0.2-0.4l0.1,0l0-0.1l-0.1,0l-0.1-0.3l0.2,0l0-0.1l-0.2,0l0-0.1l0.1,0l0-0.1
	l-0.1,0l0-0.1l-0.1,0l0,0.1l-0.1,0l0,0.1l0.1,0l0,0.1l-0.2,0l0,0.1l0.2,0l0.1,0.3l-0.1,0l0,0.1l0.1,0l-0.2,0.9l-0.2-1c0,0,0,0,0-0.1
	c0,0,0-0.1-0.1-0.1h0l0-0.2h0c0,0,0,0,0,0c0,0,0,0,0,0h0l0-0.1l0,0l0-0.2l0,0c0,0,0,0,0,0c0,0,0,0,0,0l0,0l0-0.1l-0.1,0l0,0.1l0,0
	c0,0,0,0,0,0.1c0,0,0,0,0,0l0,0l0,0.2l0,0l0,0.1l0,0c0,0,0,0,0,0c0,0,0,0,0,0h0l0,0.2h0c0,0,0,0,0,0.1c0,0,0,0.1,0.1,0.1l0.1,0.8
	l-0.6-1.5l0.1,0l0-0.1l-0.1,0l-0.1-0.3l0.2,0l0-0.1l-0.2,0l0-0.1l0.1,0l0-0.1l-0.1,0l0-0.1l-0.1,0l0,0.1l-0.1,0l0,0.1l0.1,0l0,0.1
	l-0.2,0l0,0.1l0.2,0l0.1,0.3l-0.1,0l0,0.1l0.1,0l-0.1,0.7l-0.2-1c0,0,0,0,0-0.1c0,0,0-0.1-0.1-0.1h0l0-0.3l0,0c0,0,0,0,0,0
	c0,0,0,0,0,0l0,0l0-0.1l0,0l0-0.2l0,0c0,0,0,0,0-0.1c0,0,0,0,0,0l0,0l0-0.1l-0.1,0l0,0.1l0,0c0,0,0,0,0,0.1c0,0,0,0,0,0l0,0l0,0.2
	l0,0l0,0.1h0c0,0,0,0,0,0c0,0,0,0,0,0l0,0l0,0.3l0,0c0,0,0,0,0,0.1c0,0,0,0.1,0.1,0.1l0.2,0.9l-0.6-1.4l0.1,0l0-0.1l-0.1,0L231,249
	l0.2,0l0-0.1l-0.2,0l0-0.1l0.1,0l0-0.1l-0.1,0l0-0.1l-0.1,0l0,0.1l-0.1,0l0,0.1l0.1,0l0,0.1l-0.2,0l0,0.1l0.2,0l0.1,0.3l-0.1,0
	l0,0.1l0.1,0l-0.1,0.6l-0.2-1c0,0,0,0,0-0.1c0,0,0-0.1-0.1-0.1h0l0-0.2l0,0c0,0,0,0,0,0c0,0,0,0,0,0h0l0-0.1l0,0l0-0.2l0,0
	c0,0,0,0,0-0.1c0,0,0,0,0,0l0,0l0-0.1l-0.1,0l0,0.1l0,0c0,0,0,0,0,0.1c0,0,0,0,0,0l0,0l0,0.2l0,0l0,0.1l0,0c0,0,0,0,0,0c0,0,0,0,0,0
	h0l0,0.2h0c0,0,0,0,0,0.1c0,0,0,0.1,0.1,0.1l0.2,1.1l-0.6-1.6l0.1,0l0-0.1l-0.1,0l-0.1-0.3l0.2,0l0-0.1l-0.2,0l0-0.1l0.1,0l0-0.1
	l-0.1,0l0-0.1l-0.1,0l0,0.1l-0.1,0l0,0.1l0.1,0l0,0.1l-0.2,0l0,0.1l0.2,0l0.1,0.3l-0.1,0l0,0.1l0.1,0l-0.1,0.7l-0.2-1.1
	c0,0,0,0,0-0.1c0,0,0-0.1-0.1-0.1l0,0l0-0.2l0,0c0,0,0,0,0,0c0,0,0,0,0,0l0,0l0-0.1l0,0l0-0.2l0,0c0,0,0,0,0,0c0,0,0,0,0,0l0,0
	l0-0.1l-0.1,0l0,0.1l0,0c0,0,0,0,0,0c0,0,0,0,0,0l0,0l0,0.2l0,0l0,0.1h0c0,0,0,0,0,0c0,0,0,0,0,0l0,0l0,0.2h0c0,0-0.1,0,0,0.1
	c0,0,0,0.1,0.1,0.1l0.2,0.9l-0.4-0.8l-0.8-4.5l0,0l0-0.2c0,0,0-0.1,0-0.1c0-0.1-0.1-0.1-0.1-0.1c-0.1,0-0.1,0.1-0.1,0.1
	c0,0,0,0,0,0.1l-0.1,0.1l-0.1-0.1l-0.2-1.1l0.1-0.1l-0.1,0l-0.1-0.7l0-0.1l-0.2-1.1l-0.2-0.5c0,0,0-0.1,0-0.1c0-0.1-0.1-0.1-0.1-0.1
	c-0.1,0-0.1,0.1-0.1,0.1c0,0,0,0.1,0.1,0.1l-0.1,0.1l-0.2-1l-0.3-0.7l-0.1,0c0,0-0.2-0.7-0.3-0.8c0,0,0-0.1,0-0.1
	c0.1-0.2,0-0.7-0.1-0.9c0,0-0.2-0.3-0.2-0.3c-0.2,0-0.2,0.4-0.2,0.6l0,0.1l0,0.1l0,0.1l0.1,0.1l0,0.1l0,0.1c0,0,0,0,0,0.1
	c0,0,0.1,0.1,0.1,0.1l0,0c0,0,0,0.4,0,0.8l-0.1,0l0.1,0.8l0.2,1l-0.1-0.1c0,0,0,0,0,0c0-0.1-0.1-0.1-0.1-0.1c-0.1,0-0.1,0.1-0.1,0.1
	c0,0,0,0,0,0l0,0.1l0,0.5l0.2,1.2l0,0.2l0.1,0.5l0,0.1l0.1,0.1l0.2,0.9c0,0-0.1,0-0.1,0.3c0,0-0.2,0.1-0.1,0.4c0,0-0.1,0.1,0,0.4
	c0,0-0.1,0.1,0,0.3l0,0l-0.2-1.1l-0.2-0.7l0-0.1c0,0,0-0.3-0.1-0.3l0-0.1l0-0.1c0,0,0-0.1,0-0.1c0.1-0.1-0.2-0.7-0.2-0.7
	c0,0,0,0.1,0,0.1c-0.1,0.3,0,0.7,0.1,1.1l0,0.2l0,0.7l0.1,0.7c0,0-0.1,0.1,0,0.1l0.1,0.4l-0.1,0.3l-0.2-0.4l0.1,0l0-0.1l-0.1,0
	l-0.1-0.3l0.2,0l0-0.1l-0.2,0l0-0.1l0.1,0l0-0.1l-0.1,0l0-0.1l-0.1,0l0,0.1l-0.1,0l0,0.1l0.1,0l0,0.1l-0.2,0l0,0.1l0.2,0l0.1,0.3
	l-0.1,0l0,0.1l0.1,0l-0.1,0.6l-0.2-1.1c0,0,0,0,0-0.1c0,0,0-0.1-0.1-0.1l0,0l0-0.2h0c0,0,0,0,0,0c0,0,0,0,0,0l0,0l0-0.1l0,0l0-0.2
	l0,0c0,0,0,0,0,0c0,0,0,0,0,0l0,0l0-0.1l-0.1,0l0,0.1l0,0c0,0,0,0,0,0c0,0,0,0,0,0l0,0l0,0.2l0,0l0,0.1h0c0,0,0,0,0,0c0,0,0,0,0,0h0
	l0,0.2h0c0,0,0,0,0,0.1c0,0,0,0.1,0.1,0.1l0.2,1l-0.6-1.2l0.1,0l0-0.1l-0.1,0l-0.1-0.3l0.2,0l0-0.1l-0.2,0l0-0.1l0.1,0l0-0.1l-0.1,0
	l0-0.1l-0.1,0l0,0.1l-0.1,0l0,0.1l0.1,0l0,0.1l-0.2,0l0,0.1l0.2,0l0.1,0.3l-0.1,0l0,0.1l0.1,0l-0.1,0.7l-0.2-1.1c0,0,0,0,0-0.1
	c0,0,0-0.1-0.1-0.1h0l0-0.2h0c0,0,0,0,0,0c0,0,0,0,0,0h0l0-0.1l0,0l0-0.2l0,0c0,0,0,0,0-0.1c0,0,0,0,0,0l0,0l0-0.1l-0.1,0l0,0.1l0,0
	c0,0,0,0,0,0c0,0,0,0,0,0l0,0l0,0.2l0,0l0,0.1h0c0,0,0,0,0,0c0,0,0,0,0,0h0l0,0.2l0,0c0,0-0.1,0,0,0.1c0,0,0,0.1,0.1,0.1l0.2,1
	l-0.6-1.2l0.1,0l0-0.1l-0.1,0l-0.1-0.3l0.2,0l0-0.1l-0.2,0l0-0.1l0.1,0l0-0.1l-0.1,0l0-0.1l-0.1,0l0,0.1l-0.1,0l0,0.1l0.1,0l0,0.1
	l-0.2,0c0,0,0-0.1-0.1-0.1h0l0-0.2l0,0c0,0,0,0,0,0c0,0,0,0,0,0l0,0l0-0.1l0,0l0-0.2l0,0c0,0,0,0,0,0c0,0,0,0,0,0l0,0l0-0.1l-0.1,0
	l0,0.1l0,0c0,0,0,0,0,0.1c0,0,0,0,0,0l0,0l0,0.2l0,0l0,0.1h0c0,0,0,0,0,0c0,0,0,0,0,0l0,0l0,0.2h0c0,0,0,0,0,0.1c0,0,0,0.1,0.1,0.1
	l0.2,1l-0.6-1.4l0.1,0l0-0.1l-0.1,0l-0.1-0.3l0.2,0l0-0.1l-0.2,0l0-0.1l0.1,0l0-0.1l-0.1,0l0-0.1l-0.1,0l0,0.1l-0.1,0l0,0.1l0.1,0
	l0,0.1l-0.2,0l0,0.1l0.2,0l0.1,0.3l-0.1,0l0,0.1l0.1,0l-0.1,0.6l-0.2-1.1c0,0,0,0,0-0.1c0,0,0-0.1-0.1-0.1l0,0l0-0.2l0,0
	c0,0,0,0,0,0c0,0,0,0,0,0l0,0l0-0.1l0,0l0-0.2l0,0c0,0,0,0,0,0c0,0,0,0,0,0l0,0l0-0.1l-0.1,0l0,0.1l0,0c0,0,0,0,0,0.1c0,0,0,0,0,0
	l0,0l0,0.2l0,0l0,0.1h0c0,0,0,0,0,0c0,0,0,0,0,0l0,0l0,0.2h0c0,0-0.1,0,0,0.1c0,0,0,0.1,0.1,0.1l0.2,1l-0.5-1l-0.3-1.5
	c0,0,0.1-0.2,0-0.3l-0.4-2.1l0-0.2l-0.2,0l0-0.2l-0.2,0l0,0.2l-0.1-0.1l-0.6-3.1l-0.2-0.4c0,0,0.1-0.1,0.1-0.1
	c0-0.1-0.1-0.1-0.1-0.1c-0.1,0-0.1,0.1-0.1,0.1c0,0,0,0.1,0.1,0.1l0,0.1l-0.1-0.2l-0.2-0.9l-0.2-0.5c0,0-0.2-0.6-0.2-0.6
	c0,0,0,0,0-0.1c0,0,0-0.1,0-0.1c0-0.1,0-0.7-0.1-0.7c0,0,0,0,0,0c0,0,0-0.2-0.1-0.2c0,0-0.1-0.1-0.1-0.1l0-0.1c0,0,0-0.1-0.1-0.1
	c-0.1,0-0.1,0.1-0.1,0.2c0,0.1,0,0.1,0,0.1c0,0.1,0,0.1,0.1,0.2c0,0.1,0,0.1,0,0.2c0,0.1,0.1,0.2,0.1,0.3c0,0,0,0,0,0c0,0,0,0,0,0
	c0,0.1,0,0.1,0.1,0.2c0,0,0,0.1,0,0.1l0,0.6l0,0.6l0.2,0.9l0,0.2l-0.1-0.1c0,0,0.1-0.1,0.1-0.1c0-0.1-0.1-0.1-0.1-0.1
	c-0.1,0-0.1,0.1-0.1,0.1c0,0,0.1,0.1,0.1,0.1l-0.1,0.5l0.5,3.1l-0.1,0.1l0,0l0-0.3l-0.1,0l0,0.2l-0.2,0.8l-0.7-3.8l-0.2-0.5
	c0,0,0.1-0.1,0.1-0.1c0-0.1-0.1-0.1-0.1-0.1c-0.1,0-0.1,0.1-0.1,0.1c0,0,0,0.1,0.1,0.1l-0.1,0.1l-0.2-1c0,0-0.3-0.6-0.3-0.6
	c0-0.1-0.1-0.2-0.1-0.3c0-0.1,0-0.1-0.1-0.2c0-0.1,0-0.1,0-0.1c0,0,0,0,0-0.1c0-0.1,0-0.2,0-0.3c0-0.1,0-0.2-0.1-0.3l0-0.1
	c0,0,0-0.2-0.1-0.3c0,0,0-0.1-0.1-0.1c0,0-0.1,0-0.1,0.1c0,0-0.1,0.2,0,0.4c0,0,0.1,0.3,0.1,0.5c0,0,0,0.1,0,0.1c0,0,0,0,0,0.1
	c0,0.1,0,0.1,0,0.2l0,0.6l0,0.6l0.2,1l-0.1,0.1l0-0.1c0,0,0.1-0.1,0-0.1c0-0.1-0.1-0.1-0.1-0.1c-0.1,0-0.1,0.1-0.1,0.1
	c0,0,0,0.1,0.1,0.1l-0.1,0.5l0.5,2.8l-0.1,0.1l0-0.1l-0.1,0l0,0.2l-0.3,0.3l0,0.5l-0.1,0.4l-0.2-1.1c0,0,0,0,0-0.1
	c0,0,0-0.1-0.1-0.1l0,0l0-0.2h0c0,0,0,0,0,0c0,0,0,0,0,0h0l0-0.1l0,0l0-0.2l0,0c0,0,0,0,0-0.1c0,0,0,0,0,0l0,0l0-0.1l-0.1,0l0,0.1
	l0,0c0,0,0,0,0,0.1c0,0,0,0,0,0l0,0l0,0.2l0,0l0,0.1h0c0,0,0,0,0,0c0,0,0,0,0,0h0l0,0.2l0,0c0,0,0,0,0,0.1c0,0,0,0.1,0.1,0.1
	l0.2,1.1l-0.5-0.8l0.1,0l0-0.1l-0.1,0l-0.1-0.3l0.2,0l0-0.1l-0.2,0l0-0.1l0.1,0l0-0.1l-0.1,0l0-0.1l-0.1,0l0,0.1l-0.1,0l0,0.1l0.1,0
	l0,0.1l-0.2,0l0,0.1l0.2,0l0.1,0.3l-0.1,0l0,0.1l0.1,0l-0.1,0.6l-0.2-1.1c0,0,0,0,0-0.1c0,0,0-0.1-0.1-0.1l0,0l0-0.2h0c0,0,0,0,0,0
	c0,0,0,0,0,0h0l0-0.1l0,0l0-0.2l0,0c0,0,0,0,0,0c0,0,0,0,0,0l0,0l0-0.1l-0.1,0l0,0.1l0,0c0,0,0,0,0,0.1c0,0,0,0,0,0l0,0l0,0.2l0,0
	l0,0.1l0,0c0,0,0,0,0,0c0,0,0,0,0,0l0,0l0,0.2h0c0,0-0.1,0,0,0.1c0,0,0,0.1,0.1,0.1l0.2,1l-0.5-1.1l0.1,0l0-0.1l-0.1,0l-0.1-0.3
	l0.2,0l0-0.1l-0.2,0l0-0.1l0.1,0l0-0.1l-0.1,0l0-0.1l-0.1,0l0,0.1l-0.1,0l0,0.1l0.1,0l0,0.1l-0.2,0c0,0,0,0,0,0c0,0,0-0.1-0.1-0.1h0
	l0-0.2h0c0,0,0,0,0,0c0,0,0,0,0,0l0,0l0-0.1l0,0l0-0.2l0,0c0,0,0,0,0,0c0,0,0,0,0,0l0,0l0-0.1l-0.1,0l0,0.1l0,0c0,0,0,0,0,0.1
	c0,0,0,0,0,0l0,0l0,0.2l0,0l0,0.1l0,0c0,0,0,0,0,0c0,0,0,0,0,0l0,0l0,0.2l0,0c0,0-0.1,0,0,0.1c0,0,0,0.1,0.1,0.1l0.2,1l-0.5-1.1
	l0.1,0l0-0.1l-0.1,0l-0.1-0.3l0.2,0l0-0.1l-0.2,0l0-0.1l0.1,0l0-0.1l-0.1,0l0-0.1l-0.1,0l0,0.1l-0.1,0l0,0.1l0.1,0l0,0.1l-0.2,0
	l0-0.1c0,0,0,0,0-0.1c0,0,0-0.1-0.1-0.1l0,0l0-0.2l0,0c0,0,0,0,0,0c0,0,0,0,0,0h0l0-0.1l0,0l0-0.2l0,0c0,0,0,0,0,0c0,0,0,0,0,0l0,0
	l0-0.1l-0.1,0l0,0.1l0,0c0,0,0,0,0,0c0,0,0,0,0,0l0,0l0,0.2l0,0l0,0.1h0c0,0,0,0,0,0c0,0,0,0,0,0h0l0,0.2h0c0,0,0,0,0,0.1
	c0,0,0,0.1,0.1,0.1l0.2,1l-0.5-1l0.1,0l0-0.2l-0.1,0l-0.1-0.5l0.2,0l0-0.2l-0.2,0l0-0.2l0.1,0l0-0.1l-0.1,0l0-0.1l-0.1,0l0,0.1
	l-0.1,0l0,0.1l0.1,0l0,0.2l-0.2,0l0,0.2l0.2,0l0.1,0.5l-0.1,0l0,0.2l0.1,0l0,0l-0.1,1.1l-0.2-1c0,0,0,0,0-0.1c0,0,0-0.1-0.1-0.1l0,0
	l0-0.2h0c0,0,0,0,0,0c0,0,0,0,0,0h0l0-0.1l0,0l0-0.2l0,0c0,0,0,0,0,0c0,0,0,0,0,0l0,0l0-0.1l-0.1,0l0,0.1l0,0c0,0,0,0,0,0
	c0,0,0,0,0,0l0,0l0,0.2l0,0l0,0.1l0,0c0,0,0,0,0,0c0,0,0,0,0,0h0l0,0.2h0c0,0,0,0,0,0.1c0,0,0,0.1,0.1,0.1l0,0.1l-0.2,0l0-0.1l0.1,0
	l0-0.1l-0.1,0l0-0.1l-0.1,0l0,0.1l-0.1,0l0,0.1l0.1,0l0,0.1l-0.2,0l0,0.1l0.2,0l0.1,0.3l-0.1,0l0,0.1l0.1,0l-0.1,1.1l-0.2-1
	c0,0,0,0,0-0.1c0,0,0-0.1-0.1-0.1l0,0l0-0.2l0,0c0,0,0,0,0,0c0,0,0,0,0,0h0l0-0.1l0,0l0-0.2l0,0c0,0,0,0,0,0c0,0,0,0,0,0l0,0l0-0.1
	l-0.1,0l0,0.1l0,0c0,0,0,0,0,0c0,0,0,0,0,0l0,0l0,0.2l0,0l0,0.1l0,0c0,0,0,0,0,0c0,0,0,0,0,0h0l0,0.2h0c0,0-0.1,0,0,0.1c0,0,0,0,0,0
	l-0.2,0l0-0.1l0.1,0l0-0.1l-0.1,0l0-0.1l-0.1,0l0,0.1l-0.1,0l0,0.1l0.1,0l0,0.1l-0.2,0l0,0.1l0.2,0l0.1,0.3l-0.1,0l0,0.1l0.1,0
	l-0.1,1.2l-0.2-1c0,0,0,0,0-0.1c0,0,0-0.1-0.1-0.1l0,0l0-0.2h0c0,0,0,0,0,0c0,0,0,0,0,0h0l0-0.1l0,0l0-0.2l0,0c0,0,0,0,0,0
	c0,0,0,0,0,0l0,0l0-0.1l-0.1,0l0,0.1l0,0c0,0,0,0,0,0c0,0,0,0,0,0l0,0l0,0.2l0,0l0,0.1h0c0,0,0,0,0,0c0,0,0,0,0,0h0l0,0.2h0
	c0,0,0,0,0,0.1c0,0,0,0.1,0.1,0.1l0.2,1.1l-0.3-0.5l0.1,0l0-0.1l-0.1,0l-0.1-0.3l0.2,0l0-0.1l-0.2,0l0-0.1l0.1,0l0-0.1l-0.1,0l0-0.1
	l-0.1,0l0,0.1l-0.1,0l0,0.1l0.1,0l0,0.1l-0.2,0l0,0.1l0.2,0l0.1,0.3l-0.1,0l0,0.1l0.1,0l-0.2,0.9l-0.2-1.1c0,0,0,0,0-0.1
	c0,0,0-0.1-0.1-0.1l0,0l0-0.2h0c0,0,0,0,0,0c0,0,0,0,0,0h0l0-0.1l0,0l0-0.2l0,0c0,0,0,0,0,0c0,0,0,0,0,0l0,0l0-0.1l-0.1,0l0,0.1l0,0
	c0,0,0,0,0,0.1c0,0,0,0,0,0l0,0l0,0.2l0,0l0,0.1h0c0,0,0,0,0,0c0,0,0,0,0,0h0l0,0.2h0c0,0-0.1,0,0,0.1c0,0,0,0.1,0.1,0.1l0.2,1.1
	l-0.2-0.4l-0.2-0.5l-0.3-0.2l0-0.2l-0.1,0l0,0.1l-0.1,0l-0.5-2.8l-0.3-0.5c0,0,0.1-0.1,0.1-0.1c0-0.1-0.1-0.1-0.1-0.1
	c-0.1,0-0.1,0.1-0.1,0.1c0,0,0,0.1,0.1,0.1l0,0.1l-0.1,0l-0.2-1l-0.2-0.6c0,0-0.2-0.5-0.2-0.5c0,0,0-0.1,0-0.2c0,0,0,0,0,0
	c0,0,0,0,0-0.1c0,0,0,0,0-0.1c0-0.1,0-0.5,0-0.5c0-0.2-0.2-0.3-0.2-0.3c0-0.1-0.1-0.1-0.1-0.1c-0.1,0-0.1,0.2-0.1,0.2
	c-0.1,0.1,0,0.3,0,0.3l0,0.1c0,0.1,0,0.2,0.1,0.3c0,0,0,0.1,0,0.1c0,0.1,0,0.1,0,0.2c0,0,0,0.1,0,0.1c0,0,0,0,0,0.1l0,0.5l0,0.7
	l0.2,1l-0.1,0c0,0,0-0.1,0-0.1c0-0.1-0.1-0.1-0.1-0.1c-0.1,0-0.1,0.1-0.1,0.1c0,0,0,0.1,0.1,0.1l0,0.5l0.7,3.8l-0.4-0.7l0-0.2
	l-0.1,0l0,0.3l0,0l-0.1-0.1l-0.6-3l-0.3-0.5c0,0,0.1-0.1,0.1-0.1c0-0.1-0.1-0.1-0.1-0.1c-0.1,0-0.1,0.1-0.1,0.1c0,0,0,0.1,0.1,0.1
	l0,0.1l-0.1-0.2l-0.2-0.9l-0.3-0.6l-0.2-0.6c0-0.1,0-0.1,0-0.2c0,0,0-0.1,0-0.1c0,0,0-0.1,0-0.1c0,0,0,0,0-0.1c0,0,0-0.1,0-0.1
	c0-0.1,0-0.2-0.1-0.2c0,0,0-0.1,0-0.1c0,0,0-0.1,0-0.1c0-0.1,0-0.1-0.1-0.2c0,0-0.1,0-0.1,0c0-0.1-0.1-0.2-0.1-0.2
	c-0.1,0-0.1,0.1-0.1,0.1s0,0,0,0.1c0,0-0.1,0.1-0.1,0.1c0,0.1,0,0.1,0,0.2c0.1,0,0.1,0.1,0.1,0.1c0,0.1,0,0.1,0.1,0.2
	c0,0.1,0.1,0.1,0.1,0.2c0,0.1,0,0.2,0.1,0.3l0,0.6l0,0.6l0.2,0.9l-0.1,0.2l-0.1-0.1c0,0,0.1-0.1,0-0.1c0-0.1-0.1-0.1-0.1-0.1
	c-0.1,0-0.1,0.1-0.1,0.1c0,0,0,0.1,0.1,0.1l0,0.5l0.5,3.1l-0.1,0.1l0-0.2l-0.2,0l0,0.2l-0.1,0.1l0,0.2l0.4,2.1
	c-0.1,0.2,0.1,0.3,0.1,0.3l0.3,1.5l-0.1,1.1l-0.2-1c0,0,0,0,0-0.1c0,0,0-0.1-0.1-0.1h0l0-0.2l0,0c0,0,0,0,0,0c0,0,0,0,0,0h0l0-0.1
	l0,0l0-0.2l0,0c0,0,0,0,0-0.1c0,0,0,0,0,0l0,0l0-0.1l-0.1,0l0,0.1l0,0c0,0,0,0,0,0.1c0,0,0,0,0,0l0,0l0,0.2l0,0l0,0.1h0c0,0,0,0,0,0
	c0,0,0,0,0,0l0,0l0,0.2h0c0,0-0.1,0,0,0.1c0,0,0,0.1,0.1,0.1l0.2,1.1l-0.3-0.5l0.1,0l0-0.1l-0.1,0l-0.1-0.3l0.2,0l0-0.1l-0.2,0
	l0-0.1l0.1,0l0-0.1l-0.1,0l0-0.1l-0.1,0l0,0.1l-0.1,0l0,0.1l0.1,0l0,0.1l-0.2,0l0,0.1l0.2,0l0.1,0.3l-0.1,0l0,0.1l0.1,0l-0.1,1.5
	l-0.2-1c0,0,0,0,0-0.1c0,0,0-0.1-0.1-0.1h0l0-0.2l0,0c0,0,0,0,0,0c0,0,0,0,0,0l0,0l0-0.1l0,0l0-0.2l0,0c0,0,0,0,0,0c0,0,0,0,0,0l0,0
	l0-0.1l-0.1,0l0,0.1l0,0c0,0,0,0,0,0.1c0,0,0,0,0,0l0,0l0,0.2l0,0l0,0.1l0,0c0,0,0,0,0,0c0,0,0,0,0,0h0l0,0.2l0,0c0,0-0.1,0,0,0.1
	l-0.2,0l0-0.1l0.1,0l0-0.1l-0.1,0l0-0.1l-0.1,0l0,0.1l-0.1,0l0,0.1l0.1,0l0,0.1l-0.2,0l0,0.1l0.2,0l0.1,0.3l-0.1,0l0,0.1l0.1,0
	l-0.1,1.3l-0.2-1c0,0,0,0,0-0.1c0,0,0-0.1-0.1-0.1l0,0l0-0.2h0c0,0,0,0,0,0c0,0,0,0,0,0h0l0-0.1l0,0l0-0.2l0,0c0,0,0,0,0,0
	c0,0,0,0,0,0l0,0l0-0.1l-0.1,0l0,0.1l0,0c0,0,0,0,0,0c0,0,0,0,0,0l0,0l0,0.2l0,0l0,0.1l0,0c0,0,0,0,0,0c0,0,0,0,0,0l0,0l0,0.2h0
	c0,0-0.1,0,0,0.1c0,0,0,0.1,0.1,0.1l0.2,1.1l-0.4-0.6l0.1,0l0-0.1l-0.1,0l-0.1-0.3l0.2,0l0-0.1l-0.2,0l0-0.1l0.1,0l0-0.1l-0.1,0
	l0-0.1l-0.1,0l0,0.1l-0.1,0l0,0.1l0.1,0l0,0.1l-0.2,0l0,0.1l0.2,0l0.1,0.3l-0.1,0l0,0.1l0.1,0l-0.2,1.4l-0.2-1c0,0,0,0,0-0.1
	c0,0,0-0.1-0.1-0.1l0,0l0-0.2h0c0,0,0,0,0,0c0,0,0,0,0,0h0l0-0.1l0,0l0-0.2l0,0c0,0,0,0,0-0.1c0,0,0,0,0,0l0,0l0-0.1l-0.1,0l0,0.1
	l0,0c0,0,0,0,0,0.1c0,0,0,0,0,0l0,0l0,0.2l0,0l0,0.1l0,0c0,0,0,0,0,0c0,0,0,0,0,0h0l0,0.2l0,0c0,0,0,0,0,0.1c0,0,0,0.1,0.1,0.1
	l0.2,1.1l-0.4-0.5l0.1,0l0-0.1l-0.1,0l-0.1-0.3l0.2,0l0-0.1l-0.2,0l0-0.1l0.1,0l0-0.1l-0.1,0l0-0.1l-0.1,0l0,0.1l-0.1,0l0,0.1l0.1,0
	l0,0.1l-0.2,0l0,0.1l0.2,0l0.1,0.3l-0.1,0l0,0.1l0.1,0l-0.1,0.5l-0.2-0.2l-0.1-0.4c0.1,0-0.1-0.1-0.1-0.1s-0.1-0.7-0.1-0.7
	c0-0.2-0.1-0.4-0.2-0.6c-0.1-0.4,0-0.9-0.3-1.3l-0.1-0.1l0,0l0,0l0,0.1l0,0.1c0,0.1,0,0.1,0,0.2c0,0,0,0.1,0,0.1
	c0,0.1,0,0.2,0.1,0.3l0,0.1v0.1c-0.1,0,0,0.3,0,0.3l0,0.1l0.1,0.7l0.2,1.1l0,0c0-0.3-0.1-0.3-0.1-0.3c0-0.3-0.2-0.4-0.2-0.4
	c0-0.3-0.2-0.3-0.2-0.3c0-0.3-0.2-0.3-0.2-0.3l-0.2-0.9l0.1-0.1l-0.1-0.1l-0.1-0.5l-0.1-0.1l-0.2-1.2l-0.2-0.5l0,0c0,0,0,0,0,0
	c0-0.1-0.1-0.1-0.1-0.1c-0.1,0-0.1,0.1-0.1,0.1c0,0,0,0,0,0l-0.1,0.1l-0.2-1l-0.2-0.8l-0.1,0c-0.1-0.3-0.2-0.7-0.2-0.7l0,0
	c0,0,0-0.1,0-0.1c0,0,0-0.1,0-0.1c-0.1-0.1,0-0.2,0-0.3c0-0.1,0-0.1-0.1-0.2c0-0.1,0-0.1,0-0.2l0-0.1l0-0.1l-0.1-0.1
	c0-0.2-0.1-0.1-0.1-0.1c-0.1,0-0.1,0.2-0.1,0.2s0,0,0,0c-0.1,0,0,0.2,0,0.2c0,0,0,0.1,0,0.1c0,0,0,0.1,0,0.1c0,0,0.1,0.1,0.1,0.1
	c0,0,0,0.1,0,0.1c0,0.1,0,0.1,0,0.2l0,0.1l0.1,0.1c-0.1,0.2,0,0.8,0,0.8l-0.1,0l0,0.7l0.2,1l-0.1,0c0,0,0-0.1,0-0.1
	c0-0.1-0.1-0.1-0.1-0.1c-0.1,0-0.1,0.1-0.1,0.1c0,0,0,0.1,0.1,0.1l0,0.6l0.2,1.1l0,0.1l0.1,0.7l-0.1,0l0.1,0.1l0.2,1.1l0,0.2
	l-0.1-0.1c0,0,0,0,0-0.1c0-0.1-0.1-0.1-0.1-0.1c-0.1,0-0.1,0.1-0.1,0.1c0,0,0,0.1,0,0.1l0,0.2l0,0l0.8,4.5l-0.1,0.9l-0.2-0.9
	c0,0,0,0,0-0.1c0,0,0-0.1-0.1-0.1l0,0l0-0.2h0c0,0,0,0,0,0c0,0,0,0,0,0h0l0-0.1l0,0l0-0.2l0,0c0,0,0,0,0,0c0,0,0,0,0,0l0,0l0-0.1
	l-0.1,0l0,0.1l0,0c0,0,0,0,0,0c0,0,0,0,0,0l0,0l0,0.2l0,0l0,0.1l0,0c0,0,0,0,0,0c0,0,0,0,0,0h0l0,0.2h0c0,0-0.1,0,0,0.1
	c0,0,0,0.1,0.1,0.1l0.2,1.1l-0.4-0.6l0.1,0l0-0.1l-0.1,0l-0.1-0.3l0.2,0l0-0.1l-0.2,0l0-0.1l0.1,0l0-0.1l-0.1,0l0-0.1l-0.1,0l0,0.1
	l-0.1,0l0,0.1l0.1,0l0,0.1l-0.2,0l0,0.1l0.2,0l0.1,0.3l-0.1,0l0,0.1l0.1,0l-0.1,1.7l-0.2-1.1c0,0,0,0,0-0.1c0,0,0-0.1-0.1-0.1h0
	l0-0.2h0c0,0,0,0,0,0c0,0,0,0,0,0l0,0l0-0.1l0,0l0-0.2l0,0c0,0,0,0,0,0c0,0,0,0,0,0l0,0l0-0.1l-0.1,0l0,0.1l0,0c0,0,0,0,0,0.1
	c0,0,0,0,0,0l0,0l0,0.2l0,0l0,0.1h0c0,0,0,0,0,0c0,0,0,0,0,0h0l0,0.2h0c0,0-0.1,0,0,0.1c0,0,0,0.1,0.1,0.1l0.2,1l-0.4-0.6l0.1,0
	l0-0.1l-0.1,0l-0.1-0.3l0.2,0l0-0.1l-0.2,0l0-0.1l0.1,0l0-0.1l-0.1,0l0-0.1l-0.1,0l0,0.1l-0.1,0l0,0.1l0.1,0l0,0.1l-0.2,0l0,0.1
	l0.2,0l0.1,0.3l-0.1,0l0,0.1l0.1,0l-0.1,1.5l-0.2-0.9c0,0,0,0,0-0.1c0,0,0-0.1-0.1-0.1l0,0l0-0.3h0c0,0,0,0,0,0c0,0,0,0,0,0h0l0-0.1
	l0,0l0-0.2l0,0c0,0,0,0,0-0.1c0,0,0,0,0,0l0,0l0-0.1l-0.1,0l0,0.1l0,0c0,0,0,0,0,0.1c0,0,0,0,0,0l0,0l0,0.2l0,0l0,0.1h0c0,0,0,0,0,0
	c0,0,0,0,0,0l0,0l0,0.3l0,0c0,0-0.1,0,0,0.1c0,0,0,0.1,0.1,0.1l0.2,1l-0.4-0.6l0.1,0l0-0.1l-0.1,0l-0.1-0.3l0.2,0l0-0.1l-0.2,0
	l0-0.1l0.1,0l0-0.1l-0.1,0l0-0.1l-0.1,0l0,0.1l-0.1,0l0,0.1l0.1,0l0,0.1l-0.2,0l0,0.1l0.2,0l0.1,0.3l-0.1,0l0,0.1l0.1,0l-0.1,1.7
	l-0.1-0.8c0,0,0,0,0-0.1c0,0,0-0.1-0.1-0.1l0,0l0-0.2l0,0c0,0,0,0,0,0c0,0,0,0,0,0l0,0l0-0.1l0,0l0-0.2l0,0c0,0,0,0,0,0c0,0,0,0,0,0
	l0,0l0-0.1l-0.1,0l0,0.1l0,0c0,0,0,0,0,0c0,0,0,0,0,0l0,0l0,0.2l0,0l0,0.1l0,0c0,0,0,0,0,0c0,0,0,0,0,0l0,0l0,0.2l0,0c0,0,0,0,0,0.1
	c0,0,0,0.1,0.1,0.1l0.2,1l-0.4-0.8l0.1,0l0-0.1l-0.1,0l-0.1-0.3l0.2,0l0-0.1l-0.2,0l0-0.1l0.1,0l0-0.1l-0.1,0l0-0.1l-0.1,0l0,0.1
	l-0.1,0l0,0.1l0.1,0l0,0.1l-0.2,0l0,0.1l0.2,0l0.1,0.3l-0.1,0l0,0.1l0.1,0l-0.1,0.5l-0.1,0l-0.1-0.3l-0.1-0.1l-0.1-0.3
	c0.1-0.1,0-0.1,0-0.1l0-0.1l-0.1,0l0,0.1c-0.1,0,0,0.1,0,0.1c-0.1,0,0,0.1,0,0.1c-0.1,0,0,0.1,0,0.1l0,0.1c-0.1,0.1,0,0.2,0,0.2
	c-0.1,0.1,0,0.3,0,0.3l-0.2,0l0-0.1c0.2-0.1,0-0.2,0-0.2l0-0.1c0-0.1-0.1-0.1-0.1-0.1l-0.1-0.5l-0.3-1.2l-0.1,0l0,0.1l-0.6-2.2
	l-0.1-0.4l-0.2-0.7l-0.3-0.6c0,0,0,0,0-0.1c0-0.1-0.1-0.1-0.1-0.1c0,0-0.1,0.1-0.1,0.1l0,0l-0.1-0.8l-0.2-0.8l-0.1,0l-0.2-0.7l0-0.1
	l0-0.1l0-0.1c0-0.2,0-0.3-0.1-0.5l0-0.1l0-0.1c0.1-0.1,0-0.3,0-0.3c-0.1-0.2-0.2-0.2-0.2-0.2l0,0l0-0.1c0-0.1-0.2-0.1-0.2-0.1l0-0.1
	c-0.1-0.2-0.1,0.1-0.1,0.1c-0.1,0-0.1,0.2-0.1,0.2c0,0.1,0.1,0.1,0.1,0.1l0,0c0,0,0,0,0,0c0,0.1,0,0.1,0,0.1c0,0,0,0,0.1,0.1
	c0.1,0.1,0.1,0.2,0.1,0.3c0,0,0.1,0.2,0.1,0.2l0,0.1c-0.1,0.1,0.1,0.3,0.1,0.3l0,0.8l-0.1,0l0,0.8l0.1,0.8l0,0c0,0,0,0,0,0
	c0-0.1-0.1-0.1-0.1-0.1c-0.1,0-0.1,0.1-0.1,0.1c0,0,0,0.1,0,0.1l0,0l0,0.8l0.2,1l0,0.2l0,0l-0.4-1.1c0,0,0.1-0.1,0-0.1
	c0-0.1-0.1-0.1-0.1-0.1c-0.1,0-0.1,0.1-0.1,0.1c0,0,0,0,0,0l0,0l-0.1-0.1l-0.2-1.3c-0.1-0.3-0.1-0.2-0.1-0.2l-0.2-0.6l0-0.1l0-0.1
	l0-0.1l0-0.1c0,0,0-0.1,0-0.1c0,0,0-0.1,0-0.1c0-0.1,0-0.2,0-0.3c0-0.1,0-0.2-0.1-0.3c0-0.1-0.1-0.1-0.1-0.1c0-0.1,0-0.1-0.1-0.1
	c-0.1,0-0.1,0.1-0.1,0.2l0,0l0,0l0,0l0,0c-0.1,0.1,0,0.1,0,0.1c0,0.1,0.1,0.3,0.1,0.3c0,0.1,0.1,0.1,0.1,0.2c0,0,0,0.1,0,0.1
	c0,0,0,0.1,0,0.1c0,0.1-0.1,0.2,0,0.2l0,0.1l0,0.7l-0.2-0.7l-0.1,0l-0.2-0.7l0-0.1l0-0.1l0-0.1c0,0,0-0.1,0-0.1c0,0,0-0.1,0-0.2
	c0,0,0-0.1,0-0.1c0-0.1,0-0.2,0-0.3l0-0.1c0.2-0.1,0-0.3,0-0.3l-0.1,0l0,0l0,0l0-0.1l0,0l0,0l0,0l0,0l0,0l0,0l0,0l0,0l0,0.1
	c-0.1,0-0.1,0.1-0.1,0.1c-0.1,0.3,0.1,0.5,0.1,0.5c0.1,0.1,0.1,0.3,0.1,0.3c-0.1,0,0,0.1,0,0.1c0,0.1,0.1,0.2,0.1,0.2l0,0.1l0,0.7
	l-0.1,0l0,0.8l0.2,0.9l-0.1,0.1c0-0.1-0.1-0.1-0.1-0.1c-0.1,0-0.1,0.1-0.1,0.1c0,0,0,0.1,0.1,0.1l0,0.6l0.3,1.7l-0.1,0.1l0,0l0,0.1
	c-0.1,0.1,0,0.1,0,0.1l0.2,1.2c-0.2,0.2,0,0.2,0,0.2l0,0.1l-0.1,0l0,0.1l0.1,0.3l0,1.1l-0.1,0l0,0.1c-0.1,0,0,0.1,0,0.1l0,0.1l0,0.1
	l0.3,1.9l-0.1,0l0,0.3c0,0.1,0.1,0.1,0.1,0.1l0,0c-0.1,0.2,0.1,0.3,0.1,0.3l0.1,0.5l0.9,5.3c-0.1,0-0.1,0.2-0.1,0.2l0,0.1
	c-0.1,0.1,0.1,0.1,0.1,0.1c-0.1,0.1,0,0.1,0,0.1l0,0.1c-0.1,0,0,0.1,0,0.1l0,0.1c-0.1,0.1,0,0.1,0,0.1c-0.1,0.2,0,0.2,0,0.2l0,0.1
	c-0.1,0.1,0,0.1,0,0.1l0,0.1c-0.1,0.1,0,0.2,0,0.2l0,0.1c-0.1,0.2,0,0.2,0,0.2l0,0c-0.1,0.1,0,0.1,0,0.1c0,0.1,0,0.1,0,0.1l0,0.1
	c-0.1,0.2,0.1,0.2,0.1,0.2l0.6,3.7l-0.1,0.2l0,0.1l0,0.1l0,0.1l0.1,0.1l0.1,0.1l0,0.1l-0.1,0.1c-0.1,0.2,0.1,0.1,0.1,0.1l0,0
	l0.1,0.1l0,0.1c-0.1,0.3,0.1,0.3,0.1,0.3c0.1,0.1,0.1,0.3,0.1,0.3l-0.1,0.1c0.1,0.2-0.1,0.4-0.1,0.4l0.2,0l0.1,0.4
	c-0.1,0.3,0.2,0.2,0.2,0.2l0.3,1.6l-0.4,0.9l0.1,0.5l46.5-8.1L242.7,270.3z"/>
<path fill="#231F20" d="M202,265.9c-0.1-0.4-0.4-0.6-0.8-0.6l-0.5,0.1c-0.4,0.1-0.6,0.4-0.6,0.8l0.5,2.9l1.9-0.3L202,265.9z"/>
<path fill="#231F20" d="M208.7,264.7c-0.1-0.4-0.4-0.6-0.8-0.6l-0.5,0.1c-0.4,0.1-0.6,0.4-0.6,0.8l0.5,2.9l1.9-0.3L208.7,264.7z"/>
<path fill="#231F20" d="M207.5,257.8c-0.1-0.4-0.4-0.6-0.8-0.6l-0.5,0.1c-0.4,0.1-0.6,0.4-0.6,0.8l0.5,2.9l1.9-0.3L207.5,257.8z"/>
<path fill="#231F20" d="M228.3,261.2c-0.1-0.4-0.4-0.6-0.8-0.6l-0.5,0.1c-0.4,0.1-0.6,0.4-0.6,0.8l0.5,2.9l1.9-0.3L228.3,261.2z"/>
<path fill="#231F20" d="M227,254.4c-0.1-0.4-0.4-0.6-0.8-0.6l-0.5,0.1c-0.4,0.1-0.6,0.4-0.6,0.8l0.5,2.9l1.9-0.3L227,254.4z"/>
<path fill="#231F20" d="M235,260.1c-0.1-0.4-0.4-0.6-0.8-0.6l-0.5,0.1c-0.4,0.1-0.6,0.4-0.6,0.8l0.5,2.9l1.9-0.3L235,260.1z"/>
<path fill="#231F20" d="M215.8,252.9l0.5-0.1l0,0l0.9-0.2l-0.3-1.5h0l0,0l-0.4-2.2c0,0-0.6-1.9-1.8-2l0,0c0,0,0,0,0,0c0,0,0,0,0,0
	l0,0c-1.1,0.5-1,2.5-1,2.5l0.7,3.7L215.8,252.9L215.8,252.9z"/>
<path fill="#231F20" d="M216.3,258c-0.5,0.1-0.9,0.6-0.8,1.1l0.7,4l2.7-0.5l-0.7-4c-0.1-0.5-0.6-0.9-1.1-0.8L216.3,258z"/>
<g>
	<defs>
		<path id="SVGID_7_" d="M215.4,226.2v-37c0-2.4,1.8-4.5,4.1-4.8c0,0,120.9-14.8,120.9-14.8c0,0,0.5,0,0.5,0c2.4,0,4.3,2,4.3,4.5v37
			c0,2.4-1.8,4.5-4.1,4.8c0,0-120.9,14.8-120.9,14.8c0,0-0.5,0-0.5,0C217.3,230.6,215.4,228.7,215.4,226.2"/>
	</defs>
	<use xlink:href="#SVGID_7_"  overflow="visible" fill-rule="evenodd" clip-rule="evenodd" fill="#F07108"/>
	<clipPath id="SVGID_8_">
		<use xlink:href="#SVGID_7_"  overflow="visible"/>
	</clipPath>
	<rect x="206.8" y="165.6" clip-path="url(#SVGID_8_)" fill="#FFFFFF" width="157.2" height="66.7"/>
</g>
<g>
	<defs>
		<path id="SVGID_9_" d="M219.9,187.3l121-14.8c0.8-0.1,1.5,0.5,1.5,1.4v37c0,0.9-0.7,1.7-1.5,1.8l-121,14.8
			c-0.8,0.1-1.5-0.5-1.5-1.4v-37C218.4,188.3,219,187.4,219.9,187.3L219.9,187.3z"/>
	</defs>
	<use xlink:href="#SVGID_9_"  overflow="visible" fill-rule="evenodd" clip-rule="evenodd" fill="#F07108"/>
	<clipPath id="SVGID_10_">
		<use xlink:href="#SVGID_9_"  overflow="visible"/>
	</clipPath>
</g>
<g>
	<defs>
		<path id="SVGID_11_" d="M252,214c-1.6,0.2-2.1-0.3-2.3-1.6l-0.8-8.8c-0.1-1.3,0-3.1,0-3.1l-0.1,0c0,0-0.7,2.1-1.3,3.3l-4,7.9
			L240,212l-4-6.9c-0.6-1-1.3-3-1.3-3l-0.1,0c0,0,0.1,1.8,0,3.1l-0.8,9c-0.1,1.4-0.7,2-2.3,2.2l-3.8,0.5v-3.1l1-0.1
			c0.5-0.1,0.7-0.3,0.7-0.7l1.5-16.4l4.6-0.6l4.9,8.9c0.6,1.1,1.2,2.5,1.2,2.5l0.1,0c0,0,0.6-1.6,1.2-2.8l4.9-10.1l4.6-0.6l1.5,16
			c0,0.4,0.3,0.6,0.7,0.5l1-0.1v3.1L252,214L252,214z M266.7,209v3.1l-9,1.1v-3.1l2.4-0.3v-13.7l-2.4,0.3v-3.1l9-1.1v3.1l-2.4,0.3
			v13.7L266.7,209L266.7,209z M284.1,210l-10.5,1.3c-1.6,0.2-2.3-0.3-2.3-1.6v-14.3c0-0.4-0.3-0.6-0.7-0.5l-1.4,0.2v-3.1l4.3-0.5
			c1.6-0.2,2.3,0.3,2.3,1.6v14.3c0,0.4,0.3,0.6,0.7,0.5l5.2-0.6c0.5-0.1,0.7-0.3,0.7-0.7v-1.2l4-0.5v3
			C286.4,209.1,285.7,209.8,284.1,210L284.1,210z M306.4,207.2c-1.7,0.2-2.3-0.1-2.8-1.3l-1.5-3.3l-8.1,1l-1.5,3.7
			c-0.5,1.3-1.1,1.8-2.8,2l-2.7,0.3v-3.1l0.5-0.1c0.6-0.1,0.8-0.2,1-0.7l7.1-17.1l4.6-0.6l7.1,15.4c0.2,0.5,0.5,0.6,1,0.5l0.5-0.1
			v3.1L306.4,207.2L306.4,207.2z M299,194.9c-0.4-1-0.9-2.9-0.9-2.9l-0.1,0c0,0-0.5,1.9-0.9,3.1l-2.1,5.3l6.1-0.8L299,194.9
			L299,194.9z M332.7,187.1c-0.5,0.1-0.7,0.3-0.7,0.7V204l-3.9,0.5l-9.1-9.9c-0.9-1-2-2.6-2-2.6l-0.1,0c0,0,0.2,1.6,0.2,2.8v9.1
			c0,1.3-0.7,2-2.3,2.2l-4.3,0.5v-3.1l1.4-0.2c0.5-0.1,0.7-0.3,0.7-0.7v-16.2l4-0.5l9.1,9.9c0.9,1,2,2.6,2,2.6l0.1,0
			c0,0-0.2-1.6-0.2-2.8v-9.1c0-1.3,0.7-2,2.3-2.2l4.3-0.5v3.1L332.7,187.1L332.7,187.1z"/>
	</defs>
	<use xlink:href="#SVGID_11_"  overflow="visible" fill="#FFFFFF"/>
	<clipPath id="SVGID_12_">
		<use xlink:href="#SVGID_11_"  overflow="visible"/>
	</clipPath>
</g>
</svg>
